<svg width="80" height="28" viewBox="0 0 80 28" fill="none" xmlns="http://www.w3.org/2000/svg">
<path d="M80 0L21.4733 24.92C16.62 26.9733 12.5433 28.0033 9.24666 28.0033C5.51332 28.0033 2.80332 26.6967 1.12332 24.08C0.0666565 22.4 -0.243344 20.27 0.18999 17.6867C0.623323 15.1033 1.77666 12.3533 3.64332 9.42667C5.19999 7.06 7.74999 3.95 11.3 0.0933329C10.0959 1.98889 9.21289 4.07019 8.68666 6.25333C7.75332 10.2367 8.59332 13.16 11.2067 15.0267C12.45 15.8967 14.16 16.3333 16.34 16.3333C18.08 16.3333 20.04 16.0533 22.22 15.4933L80 0Z" fill="black"/>
</svg>
